
<svg width="600" height="600" xmlns="http://www.w3.org/2000/svg">
  <path d="M0,75 L50,25 L100,75 L150,25 L200,75 L250,25 L300,75 L350,25 L400,75 L450,25 L500,75 L550,25 L600,75 L600,125 L550,175 L500,125 L450,175 L400,125 L350,175 L300,125 L250,175 L200,125 L150,175 L100,125 L50,175 L0,125 Z M0,175 L50,225 L100,175 L150,225 L200,175 L250,225 L300,175 L350,225 L400,175 L450,225 L500,175 L550,225 L600,175 L600,225 L550,275 L500,225 L450,275 L400,225 L350,275 L300,225 L250,275 L200,225 L150,275 L100,225 L50,275 L0,225 Z M0,275 L50,325 L100,275 L150,325 L200,275 L250,325 L300,275 L350,325 L400,275 L450,325 L500,275 L550,325 L600,275 L600,325 L550,375 L500,325 L450,375 L400,325 L350,375 L300,325 L250,375 L200,325 L150,375 L100,325 L50,375 L0,325 Z M0,375 L50,425 L100,375 L150,425 L200,375 L250,425 L300,375 L350,425 L400,375 L450,425 L500,375 L550,425 L600,375 L600,425 L550,475 L500,425 L450,475 L400,425 L350,475 L300,425 L250,475 L200,425 L150,475 L100,425 L50,475 L0,425 Z M0,475 L50,525 L100,475 L150,525 L200,475 L250,525 L300,475 L350,525 L400,475 L450,525 L500,475 L550,525 L600,475 L600,525 L550,575 L500,525 L450,575 L400,525 L350,575 L300,525 L250,575 L200,525 L150,575 L100,525 L50,575 L0,525 Z M0,575 L50,625 L100,575 L150,625 L200,575 L250,625 L300,575 L350,625 L400,575 L450,625 L500,575 L550,625 L600,575 L600,625 L550,675 L500,625 L450,675 L400,625 L350,675 L300,625 L250,675 L200,625 L150,675 L100,625 L50,675 L0,625 Z" fill="black" fill-opacity="0.05"/>
</svg>
